<svg xmlns="http://www.w3.org/2000/svg" width="1280" height="640" viewBox="0 0 1280 640" font-family="DejaVu Sans Mono, monospace"><defs>
    <linearGradient id="bg" x1="0" y1="0" x2="1" y2="1">
      <stop offset="0" stop-color="#F2EEE6"/>
      <stop offset="1" stop-color="#E7E1D4"/>
    </linearGradient>
    <filter id="cardShadow" x="-20%" y="-20%" width="140%" height="160%">
      <feDropShadow dx="0" dy="18" stdDeviation="28" flood-color="#000000" flood-opacity="0.45"/>
    </filter>
  </defs><rect width="1280" height="640" fill="url(#bg)"/><g opacity="0.06"><rect x="112.20" y="240.00" width="75.60" height="302.40" rx="37.80" transform="rotate(0 150 600)" fill="#C8623F"/><rect x="112.20" y="240.00" width="75.60" height="302.40" rx="37.80" transform="rotate(30 150 600)" fill="#C8623F"/><rect x="112.20" y="240.00" width="75.60" height="302.40" rx="37.80" transform="rotate(60 150 600)" fill="#C8623F"/><rect x="112.20" y="240.00" width="75.60" height="302.40" rx="37.80" transform="rotate(90 150 600)" fill="#C8623F"/><rect x="112.20" y="240.00" width="75.60" height="302.40" rx="37.80" transform="rotate(120 150 600)" fill="#C8623F"/><rect x="112.20" y="240.00" width="75.60" height="302.40" rx="37.80" transform="rotate(150 150 600)" fill="#C8623F"/><rect x="112.20" y="240.00" width="75.60" height="302.40" rx="37.80" transform="rotate(180 150 600)" fill="#C8623F"/><rect x="112.20" y="240.00" width="75.60" height="302.40" rx="37.80" transform="rotate(210 150 600)" fill="#C8623F"/><rect x="112.20" y="240.00" width="75.60" height="302.40" rx="37.80" transform="rotate(240 150 600)" fill="#C8623F"/><rect x="112.20" y="240.00" width="75.60" height="302.40" rx="37.80" transform="rotate(270 150 600)" fill="#C8623F"/><rect x="112.20" y="240.00" width="75.60" height="302.40" rx="37.80" transform="rotate(300 150 600)" fill="#C8623F"/><rect x="112.20" y="240.00" width="75.60" height="302.40" rx="37.80" transform="rotate(330 150 600)" fill="#C8623F"/><circle cx="150" cy="600" r="46.80" fill="#C8623F"/></g><rect x="0" y="0" width="1280" height="5" fill="#C8623F"/><g opacity="1"><rect x="119.80" y="92.00" width="8.40" height="33.60" rx="4.20" transform="rotate(0 124 132)" fill="#C8623F"/><rect x="119.80" y="92.00" width="8.40" height="33.60" rx="4.20" transform="rotate(30 124 132)" fill="#C8623F"/><rect x="119.80" y="92.00" width="8.40" height="33.60" rx="4.20" transform="rotate(60 124 132)" fill="#C8623F"/><rect x="119.80" y="92.00" width="8.40" height="33.60" rx="4.20" transform="rotate(90 124 132)" fill="#C8623F"/><rect x="119.80" y="92.00" width="8.40" height="33.60" rx="4.20" transform="rotate(120 124 132)" fill="#C8623F"/><rect x="119.80" y="92.00" width="8.40" height="33.60" rx="4.20" transform="rotate(150 124 132)" fill="#C8623F"/><rect x="119.80" y="92.00" width="8.40" height="33.60" rx="4.20" transform="rotate(180 124 132)" fill="#C8623F"/><rect x="119.80" y="92.00" width="8.40" height="33.60" rx="4.20" transform="rotate(210 124 132)" fill="#C8623F"/><rect x="119.80" y="92.00" width="8.40" height="33.60" rx="4.20" transform="rotate(240 124 132)" fill="#C8623F"/><rect x="119.80" y="92.00" width="8.40" height="33.60" rx="4.20" transform="rotate(270 124 132)" fill="#C8623F"/><rect x="119.80" y="92.00" width="8.40" height="33.60" rx="4.20" transform="rotate(300 124 132)" fill="#C8623F"/><rect x="119.80" y="92.00" width="8.40" height="33.60" rx="4.20" transform="rotate(330 124 132)" fill="#C8623F"/><circle cx="124" cy="132" r="5.20" fill="#C8623F"/></g><text x="178" y="160" font-family="DejaVu Sans Mono, monospace" font-size="94" font-weight="bold" letter-spacing="-2"><tspan fill="#C8623F">lll</tspan><tspan fill="#1C1813">ogs</tspan></text><rect x="510" y="92" width="49" height="70" rx="3" fill="#C8623F" opacity="0.85"/><text x="84" y="262" font-family="DejaVu Sans Mono, monospace" font-size="31" fill="#1C1813" letter-spacing="0.3">Investigate &amp; monitor</text><text x="84" y="306" font-family="DejaVu Sans Mono, monospace" font-size="31" fill="#1C1813" letter-spacing="0.3">LLM <tspan fill="#C8623F">tool usage</tspan>.</text><rect x="84" y="360" width="133.2" height="40" rx="20" fill="#C8623F" fill-opacity="0.16" stroke="#C8623F" stroke-width="1.5"/><g opacity="1"><rect x="105.56" y="371.00" width="1.89" height="7.56" rx="0.94" transform="rotate(0 106.5 380)" fill="#D97757"/><rect x="105.56" y="371.00" width="1.89" height="7.56" rx="0.94" transform="rotate(30 106.5 380)" fill="#D97757"/><rect x="105.56" y="371.00" width="1.89" height="7.56" rx="0.94" transform="rotate(60 106.5 380)" fill="#D97757"/><rect x="105.56" y="371.00" width="1.89" height="7.56" rx="0.94" transform="rotate(90 106.5 380)" fill="#D97757"/><rect x="105.56" y="371.00" width="1.89" height="7.56" rx="0.94" transform="rotate(120 106.5 380)" fill="#D97757"/><rect x="105.56" y="371.00" width="1.89" height="7.56" rx="0.94" transform="rotate(150 106.5 380)" fill="#D97757"/><rect x="105.56" y="371.00" width="1.89" height="7.56" rx="0.94" transform="rotate(180 106.5 380)" fill="#D97757"/><rect x="105.56" y="371.00" width="1.89" height="7.56" rx="0.94" transform="rotate(210 106.5 380)" fill="#D97757"/><rect x="105.56" y="371.00" width="1.89" height="7.56" rx="0.94" transform="rotate(240 106.5 380)" fill="#D97757"/><rect x="105.56" y="371.00" width="1.89" height="7.56" rx="0.94" transform="rotate(270 106.5 380)" fill="#D97757"/><rect x="105.56" y="371.00" width="1.89" height="7.56" rx="0.94" transform="rotate(300 106.5 380)" fill="#D97757"/><rect x="105.56" y="371.00" width="1.89" height="7.56" rx="0.94" transform="rotate(330 106.5 380)" fill="#D97757"/><circle cx="106.5" cy="380" r="1.17" fill="#D97757"/></g><text x="120.0" y="387.7" font-family="DejaVu Sans Mono, monospace" font-size="22" font-weight="bold" fill="#D97757">Claude</text><rect x="231.2" y="360" width="115.2" height="40" rx="20" fill="none" stroke="#CDC4B4" stroke-width="1.5"/><text x="249.2" y="387.7" font-family="DejaVu Sans Mono, monospace" font-size="22" fill="#A79D8C">OpenAI</text><text x="353.4" y="387.7" font-family="DejaVu Sans Mono, monospace" font-size="13" fill="#A79D8C">soon</text><rect x="390.4" y="360" width="168.0" height="40" rx="20" fill="none" stroke="#CDC4B4" stroke-width="1.5"/><text x="408.4" y="387.7" font-family="DejaVu Sans Mono, monospace" font-size="22" fill="#A79D8C">local LLMs</text><text x="565.4" y="387.7" font-family="DejaVu Sans Mono, monospace" font-size="13" fill="#A79D8C">soon</text><text x="84" y="566" font-family="DejaVu Sans Mono, monospace" font-size="20" fill="#6E6557">local-first  ·  parse-once, read-many</text><text x="84" y="596" font-family="DejaVu Sans Mono, monospace" font-size="20" fill="#A79D8C">SQLite  →  DuckDB  →  React</text><rect x="664" y="132" width="552" height="392" rx="18" fill="#1B1814" stroke="#2A251F" stroke-width="1.5" filter="url(#cardShadow)"/><line x1="664" y1="178" x2="1216" y2="178" stroke="#2A251F" stroke-width="1"/><circle cx="690" cy="156" r="6.5" fill="#E0705C"/><circle cx="712" cy="156" r="6.5" fill="#E2B45E"/><circle cx="734" cy="156" r="6.5" fill="#7FB069"/><text x="940" y="161" text-anchor="middle" font-family="DejaVu Sans Mono, monospace" font-size="16" fill="#8A8175">tail -f  ~/.claude/projects</text><text x="690" y="218" font-family="DejaVu Sans Mono, monospace" font-size="18" xml:space="preserve"><tspan fill="#6E665A">09:24:07  </tspan><tspan fill="#E0905F">Bash  </tspan><tspan fill="#CDC5B6">git status -sb</tspan></text><text x="1190" y="218" text-anchor="end" font-family="DejaVu Sans Mono, monospace" font-size="18" fill="#5A554C">#a3f</text><text x="690" y="259" font-family="DejaVu Sans Mono, monospace" font-size="18" xml:space="preserve"><tspan fill="#6E665A">09:24:09  </tspan><tspan fill="#7BA7D0">Read  </tspan><tspan fill="#CDC5B6">server/src/app.ts</tspan></text><text x="1190" y="259" text-anchor="end" font-family="DejaVu Sans Mono, monospace" font-size="18" fill="#5A554C">#a3f</text><text x="690" y="300" font-family="DejaVu Sans Mono, monospace" font-size="18" xml:space="preserve"><tspan fill="#6E665A">09:24:12  </tspan><tspan fill="#88B06A">Edit  </tspan><tspan fill="#CDC5B6">queries.ts </tspan><tspan fill="#7FB069">+18</tspan><tspan fill="#CDC5B6"> </tspan><tspan fill="#D2725F">-4</tspan></text><text x="1190" y="300" text-anchor="end" font-family="DejaVu Sans Mono, monospace" font-size="18" fill="#5A554C">#b7c</text><text x="690" y="341" font-family="DejaVu Sans Mono, monospace" font-size="18" xml:space="preserve"><tspan fill="#6E665A">09:24:18  </tspan><tspan fill="#B58CD0">Grep  </tspan><tspan fill="#CDC5B6">"queryEvents"</tspan><tspan fill="#8A8175">  3 files</tspan></text><text x="1190" y="341" text-anchor="end" font-family="DejaVu Sans Mono, monospace" font-size="18" fill="#5A554C">#c1d</text><text x="690" y="382" font-family="DejaVu Sans Mono, monospace" font-size="18" xml:space="preserve"><tspan fill="#6E665A">09:24:21  </tspan><tspan fill="#E0905F">Bash  </tspan><tspan fill="#CDC5B6">bun test</tspan></text><text x="1190" y="382" text-anchor="end" font-family="DejaVu Sans Mono, monospace" font-size="18" fill="#5A554C">#c1d</text><text x="690" y="423" font-family="DejaVu Sans Mono, monospace" font-size="18" xml:space="preserve"><tspan fill="#6E665A">09:24:29  </tspan><tspan fill="#E0705C">✗ Bash </tspan><tspan fill="#E0705C">bun run check</tspan><tspan fill="#E0705C">  exit 1</tspan></text><text x="1190" y="423" text-anchor="end" font-family="DejaVu Sans Mono, monospace" font-size="18" fill="#5A554C">#e2a</text><text x="690" y="464" font-family="DejaVu Sans Mono, monospace" font-size="18" xml:space="preserve"><tspan fill="#6E665A">09:24:35  </tspan><tspan fill="#7BA7D0">Read  </tspan><tspan fill="#CDC5B6">v2/01-CONTRACTS.md</tspan></text><text x="1190" y="464" text-anchor="end" font-family="DejaVu Sans Mono, monospace" font-size="18" fill="#5A554C">#e2a</text><rect x="690" y="491" width="11" height="22" rx="1.5" fill="#88B06A"/></svg>